<svg width="274" height="115" viewBox="0 0 274 115" fill="none" xmlns="http://www.w3.org/2000/svg">
<path d="M88.0852 86.56C89.1052 86.8 90.3652 86.92 91.8652 86.92C94.2052 86.92 96.3352 86.5 98.2552 85.66C100.175 84.76 101.795 83.53 103.115 81.97C104.495 80.41 105.545 78.55 106.265 76.39C107.045 74.17 107.435 71.74 107.435 69.1C107.435 66.52 106.865 64.33 105.725 62.53C104.585 60.73 102.605 59.83 99.7852 59.83C97.8652 59.83 96.0652 60.01 94.3852 60.37L88.0852 86.56ZM120.755 68.11C120.755 72.49 120.035 76.51 118.595 80.17C117.155 83.77 115.145 86.89 112.565 89.53C110.045 92.17 106.985 94.24 103.385 95.74C99.8452 97.18 95.9752 97.9 91.7752 97.9C89.7352 97.9 87.6952 97.72 85.6552 97.36L81.6052 113.65H68.2852L83.2252 51.37C85.6252 50.65 88.3552 50.02 91.4152 49.48C94.5352 48.88 97.8952 48.58 101.495 48.58C104.855 48.58 107.735 49.09 110.135 50.11C112.595 51.13 114.605 52.54 116.165 54.34C117.725 56.08 118.865 58.15 119.585 60.55C120.365 62.89 120.755 65.41 120.755 68.11ZM127.066 78.46C127.066 74.62 127.726 70.9 129.046 67.3C130.426 63.7 132.346 60.52 134.806 57.76C137.266 54.94 140.236 52.69 143.716 51.01C147.256 49.27 151.156 48.4 155.416 48.4C157.516 48.4 159.466 48.7 161.266 49.3C163.066 49.9 164.626 50.77 165.946 51.91C167.326 53.05 168.376 54.46 169.096 56.14C169.876 57.76 170.266 59.62 170.266 61.72C170.266 65.08 169.516 67.93 168.016 70.27C166.516 72.61 164.416 74.53 161.716 76.03C159.076 77.47 155.926 78.52 152.266 79.18C148.606 79.84 144.616 80.17 140.296 80.17C140.716 82.69 141.616 84.49 142.996 85.57C144.436 86.59 146.686 87.1 149.746 87.1C151.666 87.1 153.616 86.95 155.596 86.65C157.576 86.29 159.436 85.78 161.176 85.12L162.166 95.65C160.486 96.31 158.326 96.91 155.686 97.45C153.106 97.99 150.286 98.26 147.226 98.26C143.506 98.26 140.356 97.75 137.776 96.73C135.256 95.65 133.186 94.21 131.566 92.41C130.006 90.61 128.866 88.51 128.146 86.11C127.426 83.71 127.066 81.16 127.066 78.46ZM153.256 59.02C150.196 59.02 147.496 60.13 145.156 62.35C142.876 64.51 141.376 67.39 140.656 70.99C144.376 70.87 147.376 70.57 149.656 70.09C151.936 69.55 153.706 68.92 154.966 68.2C156.226 67.48 157.066 66.7 157.486 65.86C157.906 65.02 158.116 64.18 158.116 63.34C158.116 60.46 156.496 59.02 153.256 59.02ZM174.791 78.46C174.791 74.62 175.451 70.9 176.771 67.3C178.151 63.7 180.071 60.52 182.531 57.76C184.991 54.94 187.961 52.69 191.441 51.01C194.981 49.27 198.881 48.4 203.141 48.4C205.241 48.4 207.191 48.7 208.991 49.3C210.791 49.9 212.351 50.77 213.671 51.91C215.051 53.05 216.101 54.46 216.821 56.14C217.601 57.76 217.991 59.62 217.991 61.72C217.991 65.08 217.241 67.93 215.741 70.27C214.241 72.61 212.141 74.53 209.441 76.03C206.801 77.47 203.651 78.52 199.991 79.18C196.331 79.84 192.341 80.17 188.021 80.17C188.441 82.69 189.341 84.49 190.721 85.57C192.161 86.59 194.411 87.1 197.471 87.1C199.391 87.1 201.341 86.95 203.321 86.65C205.301 86.29 207.161 85.78 208.901 85.12L209.891 95.65C208.211 96.31 206.051 96.91 203.411 97.45C200.831 97.99 198.011 98.26 194.951 98.26C191.231 98.26 188.081 97.75 185.501 96.73C182.981 95.65 180.911 94.21 179.291 92.41C177.731 90.61 176.591 88.51 175.871 86.11C175.151 83.71 174.791 81.16 174.791 78.46ZM200.981 59.02C197.921 59.02 195.221 60.13 192.881 62.35C190.601 64.51 189.101 67.39 188.381 70.99C192.101 70.87 195.101 70.57 197.381 70.09C199.661 69.55 201.431 68.92 202.691 68.2C203.951 67.48 204.791 66.7 205.211 65.86C205.631 65.02 205.841 64.18 205.841 63.34C205.841 60.46 204.221 59.02 200.981 59.02ZM240.426 66.76C244.026 63.88 247.416 60.94 250.596 57.94C253.776 54.94 256.506 52.18 258.786 49.66H273.906C270.546 53.38 267.036 57.04 263.376 60.64C259.776 64.18 255.636 67.96 250.956 71.98C252.216 73.54 253.476 75.34 254.736 77.38C256.056 79.42 257.286 81.55 258.426 83.77C259.626 85.99 260.706 88.24 261.666 90.52C262.686 92.8 263.526 94.96 264.186 97H249.246C248.706 95.44 248.016 93.73 247.176 91.87C246.396 90.01 245.496 88.18 244.476 86.38C243.516 84.52 242.496 82.72 241.416 80.98C240.336 79.24 239.256 77.68 238.176 76.3L233.136 97H219.816L236.016 29.32L249.966 27.16L240.426 66.76Z" fill="#F04B50"/>
<path d="M67.0758 35.1643C62.8212 36.4921 58.1095 34.7807 56.8786 26.3121C55.6477 17.8435 42.0519 10.5848 31.3861 13.2994C20.7203 16.0139 15.6802 24.3353 14.4199 30.8266C13.1596 37.318 15.5628 45.3443 28.9243 47.1143C42.2857 48.8843 58.8933 49.1502 64.321 66.6775C69.7487 84.2047 50.5 112 22.4548 114.992C9.37447 114.427 1.84969 105.096 0.443173 95.0042C-0.963344 84.9125 1.14643 76.7688 4.39911 69.9529C7.6518 63.137 12.5216 64.4114 14.4203 66.6775C16.319 68.9436 18.0947 75.0517 12.3986 76.114C6.70244 77.1763 3.1152 88.3652 12.8908 91.4814C22.6663 94.5977 37.9064 86.6309 41.2317 83.4793C44.5571 80.3278 46.5062 75.0874 44.3964 68.8911C42.2866 62.6947 37.8915 55.7897 20.9546 54.2557C4.01771 52.7216 2.90458 39.8561 2.90458 35.1648C2.90458 30.4734 2.79904 16.3861 18.3741 5.74576C33.9491 -4.89458 51.8664 1.20741 60.7448 8.27157C69.6231 15.3357 71.9614 24.0636 71.9986 26.7548C72.0359 29.446 71.3304 33.8366 67.0758 35.1643Z" fill="#F04B50"/>
</svg>
