<svg width="42" height="42" viewBox="0 0 42 42" fill="none" xmlns="http://www.w3.org/2000/svg">
<path d="M41.6885 36.54L30.5707 25.4205C32.1982 22.8568 33.138 19.8205 33.138 16.5672C33.1397 7.434 25.7057 0 16.569 0C7.43225 0 0 7.434 0 16.569C0 25.7058 7.43225 33.1398 16.569 33.1398C19.663 33.1398 22.5557 32.2875 25.0372 30.807L36.2302 42L41.6885 36.54ZM6.174 16.569C6.174 10.8413 10.8377 6.1775 16.5672 6.1775C22.2985 6.1775 26.9622 10.8395 26.9622 16.569C26.9622 22.3003 22.2985 26.9622 16.5672 26.9622C10.8377 26.9622 6.174 22.3003 6.174 16.569Z" fill="#434343"/>
</svg>
