<svg width="72" height="115" viewBox="0 0 72 115" fill="none" xmlns="http://www.w3.org/2000/svg">
<path d="M67.0758 35.1643C62.8212 36.4921 58.1095 34.7807 56.8786 26.3121C55.6477 17.8435 42.0519 10.5848 31.3861 13.2994C20.7203 16.0139 15.6802 24.3353 14.4199 30.8266C13.1596 37.318 15.5628 45.3443 28.9243 47.1143C42.2857 48.8843 58.8933 49.1502 64.321 66.6775C69.7487 84.2047 50.5 112 22.4548 114.992C9.37447 114.427 1.84969 105.096 0.443173 95.0042C-0.963344 84.9125 1.14643 76.7688 4.39911 69.9529C7.6518 63.137 12.5216 64.4114 14.4203 66.6775C16.319 68.9436 18.0947 75.0517 12.3986 76.114C6.70244 77.1763 3.1152 88.3652 12.8908 91.4814C22.6663 94.5977 37.9064 86.6309 41.2317 83.4793C44.5571 80.3278 46.5062 75.0874 44.3964 68.8911C42.2866 62.6947 37.8915 55.7897 20.9546 54.2557C4.01771 52.7216 2.90458 39.8561 2.90458 35.1648C2.90458 30.4734 2.79904 16.3861 18.3741 5.74576C33.9491 -4.89458 51.8664 1.20741 60.7448 8.27157C69.6231 15.3357 71.9614 24.0636 71.9986 26.7548C72.0359 29.446 71.3304 33.8366 67.0758 35.1643Z" fill="#F04B50"/>
</svg>
